<?xml version="1.0" encoding="utf-8"?>
<!-- Generator: Adobe Illustrator 23.0.4, SVG Export Plug-In . SVG Version: 6.00 Build 0)  -->
<svg version="1.1" id="Layer_1" xmlns="http://www.w3.org/2000/svg" xmlns:xlink="http://www.w3.org/1999/xlink" x="0px" y="0px"
	 viewBox="0 0 75 75" style="enable-background:new 0 0 75 75;" xml:space="preserve">
<style type="text/css">
	.st0{fill:#FFFFFF;}
	.st1{fill:none;stroke:#000000;stroke-width:0.5;stroke-miterlimit:10;}
</style>
<g>
	<path class="st0" d="M53.33,29.42c-0.03,0.01-0.06,0.02-0.09,0.03c0,0.26,0,0.53,0,0.79c0.01,1.11,0.08,2.22,0.02,3.33
		c-0.06,1.16-0.24,2.3-1.19,3.16c-0.74,0.67-1.44,1.38-2.15,2.09c-0.49,0.49-0.51,0.75-0.15,1.34c0.3,0.49,0.29,0.81-0.08,1.25
		c-0.13,0.16-0.29,0.29-0.45,0.42c-0.96,0.74-1,1.26-0.14,2.09c0.33,0.32,0.71,0.59,1.04,0.91c0.14,0.13,0.34,0.41,0.3,0.48
		c-0.2,0.31-0.43,0.64-0.74,0.81c-0.15,0.08-0.53-0.12-0.72-0.28c-0.44-0.38-0.84-0.82-1.25-1.24c-0.33-0.34-0.69-0.41-1.06-0.13
		c-0.3,0.23-0.57,0.5-0.84,0.77c-0.35,0.35-0.66,0.73-1.03,1.06c-0.76,0.68-1.25,0.67-1.97-0.05c-0.46-0.46-0.9-0.93-1.33-1.42
		c-0.54-0.62-0.52-0.98,0.04-1.57c0.65-0.68,1.31-1.34,1.97-2.01c0.85-0.88,1.7-1.76,2.56-2.63c0.44-0.45,0.95-0.8,1.61-0.51
		c0.56,0.25,0.98,0.07,1.35-0.35c0.3-0.33,0.57-0.71,0.92-0.96c1.4-1.02,1.97-2.38,1.91-4.08c-0.06-1.7-0.03-3.4-0.07-5.1
		c-0.01-0.53,0.06-1.08-0.33-1.55c-0.63-0.73-1.21-1.51-1.84-2.24c-1.07-1.23-2.35-2.19-3.93-2.75c0.06,0.05,0.12,0.09,0.17,0.14
		c0.32,0.29,0.65,0.56,0.95,0.86c0.08,0.08,0.07,0.25,0.1,0.39c-0.13,0.03-0.28,0.11-0.39,0.08c-0.21-0.06-0.41-0.17-0.59-0.29
		c-2.72-1.83-5.83-2.45-8.99-2.87c-1.55-0.21-3.09,0.19-4.63,0.47c-2.56,0.48-4.74,1.67-6.76,3.24c-0.34,0.26-0.69,0.5-1.04,0.75
		c-0.03-0.04-0.06-0.08-0.09-0.12c0.73-0.76,1.49-1.51,2.37-2.08c1.07-0.68,2.18-1.31,3.32-1.85c1.58-0.74,3.24-1.19,5-1.23
		c0.7-0.01,1.39,0,2.09-0.02c0.1,0,0.2-0.1,0.3-0.16c-0.09-0.07-0.17-0.18-0.27-0.2c-0.25-0.04-0.51-0.06-0.76-0.05
		c-3.38,0.18-6.54,1.02-9.4,2.91c-4.37,2.88-7.19,6.85-8.23,11.96c-1.19,5.88,0.32,11.15,4.11,15.77c2.15,2.62,4.88,4.48,8.1,5.49
		c4.81,1.5,9.51,1.11,13.98-1.32c4.04-2.19,6.84-5.48,8.51-9.73c1.5-3.82,1.63-7.74,0.51-11.69C53.87,30.83,53.58,30.13,53.33,29.42
		z"/>
	<path d="M53.33,29.42c0.25,0.71,0.53,1.41,0.74,2.14c1.12,3.95,0.99,7.87-0.51,11.69c-1.67,4.25-4.48,7.54-8.51,9.73
		c-4.47,2.43-9.17,2.81-13.98,1.32c-3.22-1-5.95-2.87-8.1-5.49c-3.79-4.61-5.3-9.88-4.11-15.77c1.04-5.11,3.86-9.08,8.23-11.96
		c2.86-1.89,6.02-2.73,9.4-2.91c0.25-0.01,0.51,0.01,0.76,0.05c0.1,0.02,0.18,0.13,0.27,0.2c-0.1,0.06-0.2,0.16-0.3,0.16
		c-0.7,0.02-1.39,0-2.09,0.02c-1.76,0.04-3.43,0.49-5,1.23c-1.15,0.54-2.26,1.16-3.32,1.85c-0.89,0.57-1.65,1.31-2.37,2.08
		c0.03,0.04,0.06,0.08,0.09,0.12c0.35-0.25,0.7-0.49,1.04-0.75c2.02-1.57,4.2-2.76,6.76-3.24c1.54-0.29,3.08-0.68,4.63-0.47
		c3.15,0.43,6.27,1.04,8.99,2.87c0.18,0.12,0.38,0.23,0.59,0.29c0.11,0.03,0.26-0.05,0.39-0.08c-0.03-0.13-0.02-0.3-0.1-0.39
		c-0.3-0.3-0.63-0.58-0.95-0.86c-0.05-0.05-0.11-0.09-0.17-0.14c1.58,0.55,2.86,1.51,3.93,2.75c0.63,0.73,1.21,1.51,1.84,2.24
		c0.4,0.47,0.32,1.02,0.33,1.55c0.04,1.7,0.01,3.4,0.07,5.1c0.06,1.7-0.51,3.06-1.91,4.08c-0.35,0.26-0.62,0.63-0.92,0.96
		c-0.38,0.42-0.79,0.6-1.35,0.35c-0.66-0.29-1.17,0.06-1.61,0.51c-0.86,0.87-1.7,1.75-2.56,2.63c-0.65,0.67-1.32,1.33-1.97,2.01
		c-0.57,0.59-0.58,0.95-0.04,1.57c0.43,0.49,0.87,0.97,1.33,1.42c0.73,0.72,1.21,0.73,1.97,0.05c0.37-0.33,0.68-0.71,1.03-1.06
		c0.27-0.27,0.54-0.54,0.84-0.77c0.37-0.28,0.74-0.21,1.06,0.13c0.41,0.42,0.81,0.86,1.25,1.24c0.19,0.17,0.57,0.36,0.72,0.28
		c0.31-0.17,0.54-0.5,0.74-0.81c0.05-0.07-0.16-0.35-0.3-0.48c-0.33-0.32-0.71-0.59-1.04-0.91c-0.86-0.83-0.82-1.35,0.14-2.09
		c0.16-0.13,0.32-0.26,0.45-0.42c0.37-0.44,0.38-0.77,0.08-1.25c-0.36-0.58-0.34-0.84,0.15-1.34c0.7-0.71,1.4-1.43,2.15-2.09
		c0.96-0.86,1.13-2,1.19-3.16c0.06-1.11-0.01-2.22-0.02-3.33c0-0.26,0-0.53,0-0.79C53.28,29.44,53.31,29.43,53.33,29.42z
		 M29.52,36.56c0.04,3.97,2.74,6.52,6.84,6.76c3.71,0.22,6.89-3.02,6.99-6.84c0.09-3.68-2.94-6.7-6.78-6.79
		C32.8,29.61,29.59,32.74,29.52,36.56z M38.08,20c-0.06,0.03-0.22,0.14-0.39,0.24c0.16,0.09,0.32,0.2,0.49,0.28
		c0.08,0.04,0.19,0.03,0.28,0.04c1.88,0.22,3.68,0.7,5.37,1.55c0.61,0.31,1.19,0.67,1.79,0.99c0.13,0.07,0.31,0.02,0.47,0.03
		c-0.07-0.14-0.1-0.33-0.21-0.41c-0.28-0.21-0.58-0.38-0.89-0.55C42.91,20.94,40.64,20.25,38.08,20z M36.13,52.62
		c0-0.07,0-0.14,0-0.21c-0.26-0.05-0.52-0.12-0.79-0.13c-2.49-0.16-4.84-0.82-7.03-2.04c-0.12-0.07-0.25-0.15-0.38-0.19
		c-0.07-0.02-0.21,0.01-0.24,0.07c-0.03,0.06,0,0.18,0.05,0.24c0.07,0.08,0.17,0.15,0.26,0.2c2.36,1.32,4.89,2.03,7.58,2.15
		C35.77,52.73,35.95,52.65,36.13,52.62z M38.1,20.95c-0.06,0.03-0.22,0.1-0.37,0.17c0.14,0.1,0.28,0.2,0.42,0.29
		c0.02,0.02,0.06,0.01,0.09,0.02c2.44,0.26,4.7,1.03,6.77,2.36c0.13,0.08,0.33,0.04,0.51,0.06c-0.09-0.14-0.14-0.34-0.27-0.42
		C43.11,22.01,40.76,21.22,38.1,20.95z M36.08,51.72c0.01-0.06,0.01-0.12,0.02-0.18c-0.18-0.05-0.35-0.15-0.53-0.16
		c-2.45-0.15-4.76-0.77-6.89-1.99c-0.13-0.08-0.34-0.03-0.51-0.03c0.1,0.14,0.16,0.33,0.3,0.4c2.2,1.28,4.58,1.93,7.12,2.05
		C35.74,51.82,35.91,51.75,36.08,51.72z M35.35,51.03c0.22-0.09,0.44-0.19,0.67-0.28c-0.22-0.09-0.43-0.17-0.65-0.26
		c-0.04-0.02-0.09-0.01-0.14-0.01c-1.47-0.11-2.89-0.41-4.25-0.97c-0.66-0.27-1.29-0.62-1.94-0.91c-0.1-0.05-0.25,0-0.38,0.01
		c0.05,0.12,0.08,0.26,0.16,0.34c0.13,0.12,0.29,0.19,0.44,0.27C31.15,50.21,33.17,50.79,35.35,51.03z M38.04,21.83
		c-0.05,0.03-0.17,0.11-0.29,0.18c0.11,0.09,0.22,0.18,0.34,0.26c0.05,0.03,0.12,0.03,0.19,0.04c2.25,0.26,4.33,0.99,6.23,2.21
		c0.12,0.07,0.3,0.03,0.46,0.05c-0.08-0.14-0.12-0.33-0.24-0.41C42.73,22.84,40.53,22.08,38.04,21.83z M44.58,25.46
		c0.02-0.06,0.05-0.11,0.07-0.17c-0.12-0.11-0.23-0.24-0.36-0.32c-1.51-0.97-3.15-1.64-4.91-1.99c-0.39-0.08-0.78-0.14-1.18-0.17
		c-0.14-0.01-0.29,0.1-0.44,0.15c0.13,0.09,0.26,0.21,0.4,0.25c0.37,0.09,0.75,0.13,1.13,0.19c1.71,0.31,3.26,1.02,4.75,1.89
		C44.2,25.38,44.4,25.4,44.58,25.46z M35.98,49.92c0-0.08,0.01-0.15,0.01-0.23c-0.29-0.05-0.58-0.13-0.88-0.16
		c-1.78-0.16-3.46-0.63-5.04-1.47c-0.2-0.1-0.38-0.24-0.58-0.32c-0.08-0.04-0.2,0.02-0.3,0.03c0.03,0.1,0.02,0.22,0.09,0.28
		c0.15,0.14,0.32,0.27,0.5,0.36c1.78,0.95,3.68,1.46,5.68,1.58C35.64,50,35.81,49.94,35.98,49.92z M36,48.76
		c-0.22-0.09-0.36-0.19-0.53-0.22c-0.31-0.06-0.63-0.07-0.95-0.11c-1.49-0.23-2.91-0.67-4.23-1.41c-0.17-0.09-0.39-0.09-0.59-0.14
		C30.35,47.99,35.02,49.35,36,48.76z M38.04,23.82c-0.05,0.03-0.17,0.11-0.29,0.18c0.12,0.09,0.22,0.21,0.35,0.25
		c0.31,0.08,0.62,0.1,0.93,0.17c1.52,0.31,2.95,0.85,4.26,1.69c0.13,0.08,0.33,0.04,0.5,0.05c-0.07-0.12-0.11-0.3-0.21-0.36
		C41.94,24.69,40.11,24.06,38.04,23.82z M43.14,27.12c0.05-0.05,0.09-0.11,0.14-0.16c-0.12-0.13-0.22-0.3-0.37-0.39
		c-1.38-0.88-2.9-1.43-4.52-1.66c-0.2-0.03-0.42,0.08-0.62,0.13c0.19,0.1,0.37,0.26,0.57,0.29c1.56,0.25,3.01,0.77,4.35,1.6
		C42.82,27.01,42.98,27.05,43.14,27.12z M35.37,47.93c0.03,0,0.12,0.02,0.19,0c0.09-0.03,0.18-0.1,0.27-0.15
		c-0.08-0.08-0.14-0.19-0.24-0.24c-0.07-0.05-0.18-0.04-0.28-0.05c-1.6-0.16-3.11-0.6-4.52-1.37c-0.14-0.07-0.34-0.03-0.51-0.04
		c0.1,0.14,0.16,0.34,0.3,0.42C32.06,47.31,33.65,47.77,35.37,47.93z M35.47,46.95c0.04-0.02,0.18-0.1,0.32-0.17
		c-0.13-0.09-0.25-0.24-0.39-0.26c-1.45-0.17-2.83-0.55-4.12-1.26c-0.1-0.06-0.28,0.01-0.42,0.03c0.07,0.12,0.12,0.29,0.23,0.36
		C32.42,46.37,33.84,46.78,35.47,46.95z M37.77,25.91c-0.01,0.06-0.03,0.13-0.04,0.19c0.16,0.07,0.3,0.18,0.47,0.21
		c1.39,0.24,2.7,0.69,3.91,1.44c0.12,0.07,0.31,0.03,0.47,0.04c-0.08-0.13-0.12-0.31-0.24-0.39c-1.26-0.82-2.64-1.3-4.12-1.52
		C38.07,25.85,37.92,25.89,37.77,25.91z M35.94,53.4c-1.46-0.26-2.95-0.41-4.37-0.81c-1.43-0.4-2.78-1.05-4.11-1.56
		C28.24,52.13,34.7,53.97,35.94,53.4z M38.14,26.63c-0.19,0.14-0.28,0.21-0.37,0.28c0.08,0.08,0.15,0.18,0.24,0.24
		c0.08,0.05,0.18,0.05,0.27,0.07c1.15,0.22,2.23,0.6,3.23,1.22c0.07,0.04,0.14,0.11,0.21,0.11c0.13-0.01,0.25-0.05,0.38-0.09
		c-0.06-0.1-0.09-0.23-0.17-0.29c-0.26-0.17-0.53-0.35-0.83-0.47C40.11,27.32,39.11,26.98,38.14,26.63z M35.44,46.05
		c0.04-0.02,0.16-0.09,0.29-0.16c-0.12-0.09-0.24-0.19-0.37-0.28c-0.05-0.03-0.13-0.01-0.19-0.03c-0.84-0.22-1.68-0.43-2.51-0.68
		c-0.31-0.09-0.59-0.3-0.9-0.42c-0.12-0.05-0.28,0.02-0.42,0.03c0.07,0.12,0.1,0.29,0.2,0.35C32.72,45.51,33.98,45.92,35.44,46.05z
		 M35.36,45.06c0.05-0.03,0.19-0.11,0.32-0.19c-0.13-0.09-0.26-0.23-0.4-0.25c-1.04-0.18-2.04-0.46-2.98-0.96
		c-0.12-0.06-0.3,0.01-0.46,0.01c0.08,0.12,0.14,0.28,0.25,0.35C33.07,44.58,34.13,44.91,35.36,45.06z M38,27.73
		c-0.06,0.04-0.14,0.11-0.23,0.18c0.08,0.08,0.15,0.21,0.25,0.24c0.33,0.11,0.69,0.14,1.01,0.27c0.69,0.28,1.36,0.61,2.04,0.89
		c0.12,0.05,0.29,0.01,0.43,0.01c-0.04-0.11-0.05-0.26-0.13-0.31C40.37,28.34,39.26,27.94,38,27.73z M35.36,44.18
		c0.06-0.04,0.15-0.12,0.25-0.19c-0.1-0.08-0.19-0.2-0.31-0.24c-0.89-0.31-1.78-0.62-2.68-0.91c-0.11-0.04-0.25,0.02-0.37,0.03
		c0.06,0.11,0.08,0.28,0.18,0.34C33.31,43.73,34.27,44.02,35.36,44.18z M37.99,28.62c-0.06,0.05-0.14,0.11-0.23,0.18
		c0.1,0.09,0.18,0.2,0.3,0.25c0.87,0.37,1.75,0.72,2.63,1.07c0.11,0.04,0.25,0,0.37-0.01c-0.04-0.11-0.04-0.26-0.12-0.32
		C40.07,29.18,39.09,28.83,37.99,28.62z"/>
	<path class="st0" d="M29.52,36.56c0.07-3.82,3.28-6.94,7.05-6.86c3.85,0.08,6.87,3.11,6.78,6.79c-0.09,3.82-3.27,7.06-6.99,6.84
		C32.26,43.07,29.56,40.53,29.52,36.56z M37.14,36.52c0-0.36-0.35-0.7-0.71-0.69c-0.38,0.01-0.71,0.35-0.7,0.75
		c0,0.38,0.31,0.66,0.72,0.65C36.83,37.22,37.14,36.9,37.14,36.52z"/>
	<path class="st0" d="M38.08,20c2.56,0.26,4.82,0.94,6.92,2.16c0.3,0.18,0.61,0.34,0.89,0.55c0.11,0.08,0.14,0.27,0.21,0.41
		c-0.16-0.01-0.34,0.04-0.47-0.03c-0.6-0.31-1.18-0.68-1.79-0.99c-1.69-0.86-3.49-1.34-5.37-1.55c-0.09-0.01-0.2,0-0.28-0.04
		c-0.17-0.08-0.33-0.18-0.49-0.28C37.86,20.13,38.03,20.03,38.08,20z"/>
	<path class="st0" d="M36.13,52.62c-0.18,0.03-0.36,0.11-0.54,0.1c-2.7-0.12-5.23-0.83-7.58-2.15c-0.1-0.05-0.2-0.12-0.26-0.2
		c-0.05-0.06-0.08-0.19-0.05-0.24c0.03-0.05,0.17-0.09,0.24-0.07c0.13,0.04,0.26,0.12,0.38,0.19c2.19,1.22,4.54,1.88,7.03,2.04
		c0.26,0.02,0.52,0.09,0.79,0.13C36.13,52.48,36.13,52.55,36.13,52.62z"/>
	<path class="st0" d="M38.1,20.95c2.66,0.27,5.01,1.06,7.15,2.47c0.13,0.08,0.18,0.28,0.27,0.42c-0.17-0.02-0.38,0.03-0.51-0.06
		c-2.07-1.33-4.33-2.1-6.77-2.36c-0.03,0-0.07,0-0.09-0.02c-0.14-0.09-0.28-0.19-0.42-0.29C37.88,21.05,38.04,20.98,38.1,20.95z"/>
	<path class="st0" d="M36.08,51.72c-0.17,0.03-0.34,0.09-0.51,0.09c-2.53-0.12-4.92-0.77-7.12-2.05c-0.13-0.08-0.2-0.27-0.3-0.4
		c0.17,0.01,0.38-0.04,0.51,0.03c2.14,1.23,4.45,1.84,6.89,1.99c0.18,0.01,0.35,0.1,0.53,0.16C36.09,51.6,36.08,51.66,36.08,51.72z"
		/>
	<path class="st0" d="M35.35,51.03c-2.18-0.24-4.19-0.82-6.09-1.81c-0.15-0.08-0.32-0.16-0.44-0.27c-0.09-0.08-0.11-0.22-0.16-0.34
		c0.13-0.01,0.28-0.06,0.38-0.01c0.65,0.29,1.28,0.64,1.94,0.91c1.36,0.57,2.79,0.87,4.25,0.97c0.05,0,0.1,0,0.14,0.01
		c0.22,0.08,0.44,0.17,0.65,0.26C35.79,50.84,35.57,50.93,35.35,51.03z"/>
	<path class="st0" d="M38.04,21.83c2.48,0.26,4.69,1.01,6.69,2.32c0.12,0.08,0.16,0.27,0.24,0.41c-0.15-0.01-0.34,0.03-0.46-0.05
		c-1.91-1.22-3.99-1.95-6.23-2.21c-0.06-0.01-0.14-0.01-0.19-0.04c-0.12-0.08-0.23-0.17-0.34-0.26
		C37.87,21.93,37.99,21.86,38.04,21.83z"/>
	<path class="st0" d="M44.58,25.46c-0.18-0.05-0.38-0.07-0.54-0.16c-1.49-0.87-3.04-1.58-4.75-1.89c-0.37-0.07-0.76-0.11-1.13-0.19
		c-0.15-0.03-0.27-0.16-0.4-0.25c0.15-0.06,0.3-0.16,0.44-0.15c0.39,0.03,0.79,0.09,1.18,0.17c1.76,0.35,3.4,1.02,4.91,1.99
		c0.14,0.09,0.24,0.22,0.36,0.32C44.63,25.34,44.6,25.4,44.58,25.46z"/>
	<path class="st0" d="M35.98,49.92c-0.17,0.03-0.35,0.08-0.52,0.07c-2.01-0.12-3.91-0.63-5.68-1.58c-0.18-0.1-0.35-0.22-0.5-0.36
		c-0.06-0.06-0.06-0.18-0.09-0.28c0.1-0.01,0.22-0.06,0.3-0.03c0.2,0.09,0.38,0.22,0.58,0.32c1.58,0.84,3.26,1.31,5.04,1.47
		c0.29,0.03,0.58,0.1,0.88,0.16C35.99,49.76,35.99,49.84,35.98,49.92z"/>
	<path class="st0" d="M36,48.76c-0.98,0.59-5.65-0.77-6.29-1.88c0.2,0.04,0.42,0.04,0.59,0.14c1.32,0.74,2.74,1.18,4.23,1.41
		c0.31,0.05,0.63,0.06,0.95,0.11C35.64,48.57,35.78,48.66,36,48.76z"/>
	<path class="st0" d="M38.04,23.82c2.07,0.24,3.89,0.88,5.55,1.97c0.11,0.07,0.14,0.24,0.21,0.36c-0.17-0.01-0.38,0.03-0.5-0.05
		c-1.31-0.84-2.74-1.37-4.26-1.69c-0.31-0.06-0.63-0.09-0.93-0.17c-0.13-0.03-0.23-0.16-0.35-0.25
		C37.87,23.92,37.99,23.85,38.04,23.82z"/>
	<path class="st0" d="M43.14,27.12c-0.15-0.06-0.32-0.1-0.46-0.19c-1.34-0.83-2.79-1.35-4.35-1.6c-0.2-0.03-0.38-0.19-0.57-0.29
		c0.21-0.05,0.43-0.16,0.62-0.13c1.62,0.24,3.14,0.78,4.52,1.66c0.15,0.09,0.25,0.26,0.37,0.39C43.23,27.01,43.18,27.06,43.14,27.12
		z"/>
	<path class="st0" d="M35.37,47.93c-1.72-0.16-3.31-0.62-4.79-1.44c-0.14-0.08-0.2-0.28-0.3-0.42c0.17,0.01,0.37-0.03,0.51,0.04
		c1.41,0.77,2.92,1.21,4.52,1.37c0.09,0.01,0.2,0,0.28,0.05c0.09,0.06,0.16,0.16,0.24,0.24c-0.09,0.05-0.17,0.12-0.27,0.15
		C35.49,47.95,35.41,47.93,35.37,47.93z"/>
	<path class="st0" d="M35.47,46.95c-1.63-0.16-3.06-0.57-4.38-1.31c-0.11-0.06-0.15-0.23-0.23-0.36c0.14-0.01,0.32-0.08,0.42-0.03
		c1.29,0.71,2.67,1.09,4.12,1.26c0.14,0.02,0.26,0.17,0.39,0.26C35.65,46.85,35.52,46.92,35.47,46.95z"/>
	<path class="st0" d="M37.77,25.91c0.15-0.01,0.3-0.05,0.44-0.03c1.48,0.22,2.87,0.7,4.12,1.52c0.11,0.08,0.16,0.25,0.24,0.39
		c-0.16-0.01-0.35,0.03-0.47-0.04c-1.21-0.74-2.52-1.2-3.91-1.44c-0.16-0.03-0.31-0.14-0.47-0.21
		C37.74,26.03,37.76,25.97,37.77,25.91z"/>
	<path class="st0" d="M35.94,53.4c-1.23,0.57-7.7-1.27-8.47-2.38c1.33,0.52,2.68,1.16,4.11,1.56C32.99,52.99,34.48,53.14,35.94,53.4
		z"/>
	<path class="st0" d="M38.14,26.63c0.97,0.35,1.97,0.7,2.96,1.07c0.29,0.11,0.56,0.29,0.83,0.47c0.08,0.06,0.12,0.19,0.17,0.29
		c-0.13,0.03-0.25,0.08-0.38,0.09c-0.07,0-0.14-0.07-0.21-0.11c-1-0.62-2.08-1-3.23-1.22c-0.09-0.02-0.2-0.02-0.27-0.07
		c-0.09-0.06-0.16-0.16-0.24-0.24C37.86,26.83,37.95,26.77,38.14,26.63z"/>
	<path class="st0" d="M35.44,46.05c-1.46-0.13-2.72-0.54-3.9-1.18c-0.1-0.05-0.14-0.23-0.2-0.35c0.14-0.01,0.3-0.08,0.42-0.03
		c0.31,0.12,0.59,0.33,0.9,0.42c0.83,0.25,1.67,0.46,2.51,0.68c0.06,0.02,0.14,0,0.19,0.03c0.13,0.08,0.25,0.18,0.37,0.28
		C35.6,45.96,35.48,46.03,35.44,46.05z"/>
	<path class="st0" d="M35.36,45.06c-1.23-0.15-2.28-0.48-3.26-1.03c-0.11-0.06-0.17-0.23-0.25-0.35c0.15-0.01,0.34-0.08,0.46-0.01
		c0.94,0.5,1.94,0.78,2.98,0.96c0.14,0.03,0.27,0.17,0.4,0.25C35.55,44.95,35.41,45.03,35.36,45.06z"/>
	<path class="st0" d="M38,27.73c1.26,0.21,2.37,0.61,3.37,1.28c0.08,0.05,0.09,0.21,0.13,0.31c-0.14,0-0.31,0.04-0.43-0.01
		c-0.69-0.29-1.35-0.61-2.04-0.89c-0.32-0.13-0.68-0.17-1.01-0.27c-0.1-0.03-0.17-0.16-0.25-0.24C37.86,27.84,37.94,27.77,38,27.73z
		"/>
	<path class="st0" d="M35.36,44.18c-1.09-0.15-2.05-0.45-2.93-0.98c-0.09-0.06-0.12-0.22-0.18-0.34c0.12-0.01,0.26-0.07,0.37-0.03
		c0.9,0.29,1.79,0.59,2.68,0.91c0.12,0.04,0.21,0.16,0.31,0.24C35.52,44.06,35.42,44.13,35.36,44.18z"/>
	<path class="st0" d="M37.99,28.62c1.1,0.22,2.09,0.56,2.95,1.18c0.08,0.05,0.08,0.21,0.12,0.32c-0.12,0-0.27,0.05-0.37,0.01
		c-0.88-0.35-1.76-0.7-2.63-1.07c-0.11-0.05-0.2-0.17-0.3-0.25C37.85,28.73,37.93,28.66,37.99,28.62z"/>
	<path d="M37.14,36.52c0,0.38-0.31,0.7-0.69,0.71c-0.41,0.01-0.72-0.27-0.72-0.65c0-0.4,0.32-0.74,0.7-0.75
		C36.8,35.82,37.15,36.16,37.14,36.52z"/>
</g>
<path class="st1" d="M16.68,14.9c0.49-0.64,1.13-0.78,1.68-0.35c0.54,0.43,0.61,1.13,0.18,1.83c-0.04,0.07-0.08,0.15-0.13,0.23
	c0.98,1.32,1.97,2.58,3.33,3.43c1.69,1.05,2.99,0.45,3.4-1.58c0.47-2.34-0.08-4.58-0.59-6.81c-1.15-0.08-1.73-0.53-1.87-1.39
	c-0.12-0.73,0.27-1.5,0.92-1.79c0.65-0.29,1.42-0.06,1.83,0.56c0.5,0.76,0.35,1.47-0.58,2.58c0.55,1.01,1.03,2.1,1.69,3.04
	c0.78,1.11,1.61,2.22,2.61,3.09c1.48,1.29,2.85,0.93,3.89-0.79c0.12-0.19,0.23-0.39,0.32-0.59c1.15-2.5,1.61-5.2,2.11-7.93
	c-0.14-0.05-0.24-0.08-0.34-0.12c-0.71-0.29-1.12-0.85-1.17-1.65c-0.05-0.8,0.29-1.41,0.94-1.82c0.11-0.06,0.2-0.15,0.3-0.22
	c0.34,0,0.68,0,1.03,0c0.1,0.08,0.19,0.17,0.3,0.23c0.64,0.38,0.98,0.97,0.95,1.74c-0.02,0.8-0.43,1.37-1.12,1.7
	c-0.13,0.06-0.25,0.12-0.48,0.23c0.48,1.98,0.89,3.95,1.45,5.87c0.3,1.01,0.76,2,1.3,2.89c0.8,1.31,1.89,1.53,3.18,0.81
	c0.3-0.17,0.59-0.38,0.85-0.61c1.78-1.63,2.88-3.77,3.91-5.95c-0.86-0.81-1.06-1.53-0.66-2.32c0.34-0.67,1.07-1.01,1.75-0.8
	c0.69,0.21,1.15,0.9,1.12,1.65c-0.04,0.93-0.61,1.42-1.91,1.64c-0.11,0.5-0.24,1.01-0.34,1.52c-0.32,1.76-0.63,3.53-0.22,5.32
	c0.44,1.93,1.67,2.52,3.28,1.56c1.43-0.84,2.46-2.16,3.45-3.51c-0.11-0.18-0.21-0.3-0.28-0.44c-0.27-0.56-0.18-1.07,0.23-1.51
	c0.39-0.41,1.04-0.45,1.47-0.09c0.18,0.15,0.32,0.35,0.48,0.53c0,0.32,0,0.64,0,0.96c-0.4,0.25-0.79,0.68-1.21,0.71
	c-0.4,0.04-0.62,0.16-0.83,0.45c-1.45,1.99-2.74,4.11-3.69,6.42c-0.67,1.63-1.21,3.32-1.8,4.95c-3.69-1.69-7.67-1.93-11.66-1.93
	c-4.01,0-8.01,0.22-11.8,1.97c-0.05-0.15-0.1-0.3-0.14-0.45c-1.03-4.12-2.93-7.75-5.37-11.08c-0.11-0.15-0.35-0.33-0.5-0.3
	c-0.71,0.11-1.13-0.26-1.44-0.88"/>
<g>
	<g>
		<path class="st0" d="M25.28,22.46c0.31,0,0.61,0,0.92,0c-0.37,1.23-0.75,2.46-1.12,3.69c0.01,0,0.02-0.01,0.03-0.01
			c0.29-0.36,0.57-0.68,0.83-0.97c1.04-1.1,2.06-1.98,3.03-2.72c0.38,0,0.76,0,1.14,0c-1.11,0.75-2.29,1.67-3.5,2.86
			c0.56,1.04,1.2,1.77,2,2.35c-0.44,0.16-0.87,0.34-1.3,0.53c-0.61-0.53-1.12-1.19-1.58-2.09c-0.32,0.34-0.64,0.7-0.96,1.09
			c-0.3,0.97-0.59,1.95-0.89,2.92c-0.33,0.23-0.66,0.46-0.97,0.71C23.69,28.03,24.48,25.25,25.28,22.46z"/>
		<path class="st0" d="M31.9,22.82c-0.05,0.2-0.33,0.37-0.72,0.4c-0.34,0.02-0.52-0.14-0.45-0.36c0.07-0.23,0.37-0.41,0.71-0.41
			C31.78,22.45,31.96,22.61,31.9,22.82z M29.41,27.38c0.37-1.18,0.75-2.36,1.12-3.53c0.33-0.04,0.66-0.07,0.99-0.1
			c-0.32,1.1-0.64,2.19-0.96,3.29C30.18,27.13,29.79,27.25,29.41,27.38z"/>
		<path class="st0" d="M33,24.42c0.07-0.31,0.11-0.56,0.14-0.8c0.3-0.02,0.59-0.03,0.89-0.05c-0.01,0.16-0.02,0.31-0.03,0.47
			c0.01,0,0.02,0,0.02,0c0.33-0.29,1.01-0.58,1.91-0.59c0.75-0.01,1.94,0.22,2.04,1.17c0.04,0.54,0.09,1.08,0.13,1.63
			c-0.4-0.02-0.8-0.04-1.2-0.04c-0.01-0.52-0.01-1.04-0.02-1.56c-0.01-0.43-0.36-0.8-1.32-0.78c-0.67,0.02-1.24,0.28-1.47,0.58
			c-0.06,0.07-0.1,0.16-0.11,0.25c-0.1,0.57-0.2,1.14-0.29,1.71c-0.4,0.05-0.79,0.11-1.19,0.18C32.67,25.87,32.83,25.14,33,24.42z"
			/>
		<path class="st0" d="M44.22,23.99c0.07,0.28,0.15,0.59,0.31,1.07c0.25,0.76,0.5,1.51,0.75,2.27c0.3,0.9,0.2,1.32-0.32,1.37
			c-0.52,0.07-1.43-0.21-2.29-0.46c-0.82-0.25-1.76-0.54-2.34-0.78c0.08-0.11,0.16-0.23,0.23-0.35c0.47,0.2,1.2,0.45,2.03,0.69
			c1.25,0.36,2.02,0.39,1.72-0.53c-0.04-0.13-0.09-0.27-0.13-0.4c-0.01,0-0.02-0.01-0.03-0.01c-0.23,0.24-0.82,0.26-1.82,0.01
			c-1.61-0.4-2.88-1.1-2.98-1.88c-0.13-0.94,0.99-1.44,2.22-1.35c0.94,0.07,1.56,0.45,1.9,0.79c0.01,0,0.02,0,0.02,0
			c-0.04-0.18-0.09-0.36-0.13-0.54C43.65,23.92,43.93,23.96,44.22,23.99z M43.66,25.29c-0.04-0.11-0.08-0.21-0.15-0.31
			c-0.31-0.42-0.9-0.79-1.63-0.87c-0.96-0.1-1.56,0.29-1.42,0.96c0.12,0.58,0.85,1.13,2.1,1.43c0.7,0.17,1.25,0.12,1.35-0.24
			c0.03-0.09,0.01-0.21-0.03-0.33C43.8,25.72,43.73,25.51,43.66,25.29z"/>
		<path class="st0" d="M46.87,27.83c0.36,0.29,0.97,0.74,1.49,1.03c0.75,0.43,0.97,0.29,0.83-0.18c-0.15-0.48-0.5-0.9-1.32-1.47
			c-1.1-0.74-1.72-1.3-1.89-1.83c-0.23-0.69,0.27-1.18,1.39-0.99c0.53,0.09,1.04,0.35,1.39,0.62c0,0.24-0.01,0.48-0.01,0.71
			c-0.25-0.21-0.68-0.5-1.17-0.62c-0.57-0.13-0.79,0.09-0.68,0.45c0.13,0.4,0.52,0.66,1.3,1.2c1.04,0.71,1.66,1.51,1.91,2.4
			c0.3,1.09-0.19,1.23-1.55,0.37c-0.63-0.38-1.27-0.82-1.74-1.2C46.83,28.15,46.85,27.99,46.87,27.83z"/>
	</g>
</g>
<g>
	<g>
		<path class="st0" d="M28.42,50.64c0.07-0.59,0.17-1.32,0.31-1.84c-0.01-0.01-0.02-0.01-0.03-0.02c-0.37,0.36-0.82,0.74-1.37,1.19
			c-0.65,0.53-1.32,1.11-2.02,1.77c-0.27-0.08-0.54-0.16-0.82-0.25c-0.22-0.98-0.4-2.05-0.53-3.23c-0.11-1.04-0.14-2.07-0.08-3
			c-0.01-0.01-0.01-0.01-0.02-0.02c-0.28,0.77-0.68,1.78-1.04,2.68c-0.35,0.86-0.69,1.74-1.03,2.62c-0.33-0.14-0.67-0.28-1-0.43
			c0.87-2.21,1.78-4.34,2.71-6.41c0.35,0.41,0.7,0.79,1.06,1.16c0.05,1.36,0.17,2.6,0.34,3.73c0.12,0.85,0.23,1.54,0.29,2.15
			c0.01,0,0.02,0.01,0.04,0.01c0.34-0.43,0.78-0.86,1.28-1.3c0.67-0.55,1.3-1.03,1.91-1.46c0.39,0.24,0.79,0.46,1.19,0.66
			c-0.14,1.39-0.25,2.73-0.32,4.03c-0.36-0.06-0.72-0.13-1.07-0.2C28.28,51.89,28.34,51.27,28.42,50.64z"/>
		<path class="st0" d="M36.11,52.61c0.01,0.23,0.02,0.44,0.07,0.61c-0.33,0.01-0.67,0.01-1,0.01c-0.02-0.12-0.04-0.24-0.06-0.37
			c-0.01,0-0.02,0-0.03,0c-0.29,0.18-0.95,0.41-2.06,0.34c-0.98-0.05-2.11-0.4-1.96-1.3c0.08-0.49,0.16-0.98,0.24-1.47
			c0.34,0.09,0.68,0.17,1.02,0.24c-0.06,0.44-0.11,0.88-0.17,1.33c-0.06,0.45,0.25,0.81,1.27,0.88c0.75,0.05,1.27-0.14,1.48-0.31
			c0.06-0.06,0.1-0.13,0.1-0.21c0.01-0.46,0.02-0.92,0.03-1.38c0.34,0.01,0.69,0.01,1.03-0.01C36.08,51.52,36.1,52.06,36.11,52.61z"
			/>
		<path class="st0" d="M37.8,52.72c0.33,0.06,0.92,0.09,1.48,0.02c0.81-0.1,1.16-0.34,1.12-0.55c-0.04-0.23-0.37-0.28-1.18-0.27
			c-1.09,0.01-1.6-0.18-1.62-0.45c-0.03-0.37,0.68-0.75,1.88-1.06c0.57-0.15,1.07-0.24,1.4-0.26c-0.06,0.15-0.12,0.29-0.19,0.44
			c-0.24,0-0.66,0.04-1.18,0.17c-0.61,0.15-0.93,0.35-0.91,0.53c0.02,0.19,0.38,0.24,1.16,0.2c1.04-0.05,1.61,0.04,1.69,0.45
			c0.1,0.48-0.67,0.98-2.14,1.13c-0.68,0.07-1.31,0.05-1.75-0.01C37.63,52.94,37.72,52.83,37.8,52.72z"/>
		<path class="st0" d="M43.19,47.99c0.06,0.2-0.13,0.5-0.52,0.71c-0.34,0.18-0.62,0.15-0.66-0.03c-0.04-0.19,0.17-0.47,0.51-0.68
			C42.87,47.77,43.13,47.78,43.19,47.99z M43.01,52.42c-0.22-0.99-0.45-1.98-0.69-2.97c0.33-0.15,0.66-0.31,0.99-0.48
			c0.28,1.07,0.54,2.14,0.8,3.2C43.75,52.25,43.38,52.34,43.01,52.42z"/>
		<path class="st0" d="M50.08,49.9c-0.24,0.25-0.8,0.67-1.6,0.97c-1.79,0.64-3.17,0.23-3.44-0.81c-0.28-1.06,0.63-2.48,2.26-3.92
			c0.54-0.46,1.05-0.77,1.34-0.87c0.01,0.3,0.02,0.59,0.02,0.88c-0.26,0.06-0.64,0.25-1.15,0.65c-1.18,0.94-1.66,1.97-1.44,2.76
			c0.24,0.86,1.27,1.1,2.42,0.61c0.6-0.26,0.95-0.58,1.21-0.84C49.83,49.51,49.96,49.7,50.08,49.9z"/>
	</g>
</g>
</svg>
